<?xml version="1.0" encoding="utf-8"?>
<!-- Generator: Adobe Illustrator 24.2.0, SVG Export Plug-In . SVG Version: 6.00 Build 0)  -->
<svg version="1.1" id="Layer_1" xmlns="http://www.w3.org/2000/svg" xmlns:xlink="http://www.w3.org/1999/xlink" x="0px" y="0px"
	 viewBox="0 0 100 100" style="enable-background:new 0 0 100 100;" xml:space="preserve">
<style type="text/css">
	.st0{stroke:#FFFFFF;stroke-width:0.8;stroke-miterlimit:10;}
	.st1{fill:#FFFFFF;}
</style>
<path d="M80.8,69.4c2.3,2.3,3.6,4.9,3.6,7.4c0,9.2-15.9,17.1-34.4,17.1s-34.4-7.7-34.4-17.1c0-2.7,1.3-5.4,4-7.7L17,66.3
	c-3.4,3.1-5,6.7-5,10.5c0,11.7,16.6,20.7,38,20.7s38-9,38-20.7c0-3.4-1.6-7-4.5-9.9L80.8,69.4z"/>
<path d="M37.4,9.1l-27.8,16l12.9,7.4l-0.1,0.1l0,0L9.7,40l27.8,16l12.7-7.5l0.1,0l0,0l12.6,7.2L90.3,40l-12.9-7.5L90.3,25L62.7,9.1
	l-12.6,7.4L37.4,9.1z M77.4,49.2c-4.9,2.8-9.7,5.6-14.6,8.4c-4.2-2.4-8.5-4.8-12.7-7.2c0,0-0.1,0-0.1-0.1v0.1
	c-4.2,2.5-8.4,4.9-12.6,7.4c-4.9-2.8-9.8-5.7-14.7-8.5v15.1l27.4,16l27.4-16V49.2z"/>
<line class="st0" x1="25.6" y1="32.1" x2="50.9" y2="17.3"/>
<line class="st0" x1="51" y1="18.3" x2="74" y2="31.8"/>
<g>
	<g>
		<g id="XMLID_1_">
			<g>
				<path class="st1" d="M74.2,31.8c0.1,0.1,0.2,0.2,0.3,0.4c-0.6,0.2-1.1,0.4-1.6,0.8l0,0c-4.9-5.7-13.9-4.8-16.6-4.4
					c-1,0.2-1.9,0.1-2.7-0.2c-1.2-0.4-2-1.2-2.5-2.3c-1.2-2.6,0.3-6.2,0.4-6.4c0.1-0.2,5-10.5-1.8-14.1C46,3.7,42.2,3.9,38.4,6
					c-0.9,0.6-2,0.8-3,0.7C33.5,6.5,30,6.5,28,8.4c-1.1,1-1.6,2.4-1.6,4.3c0,2,0.6,3.5,1.9,4.7c3.2,3.1,9.5,2.8,9.5,2.8
					c0.3,0,0.5,0.1,0.7,0.3c0.2,0.2,0.2,0.5,0.2,0.8c-1.2,5.7-1.2,10.8-1.2,10.9c0,2.7,0.4,5.3,1.2,7.7c-0.6-0.5-1.3-0.9-2.2-1.1
					c-0.6-2.1-0.8-4.4-0.8-6.6c0-0.2,0-4.7,1-10.2c-2.2-0.1-6.8-0.6-9.7-3.3c-1.6-1.5-2.4-3.6-2.4-6c0-2.4,0.7-4.3,2.2-5.6
					c2.5-2.3,6.5-2.3,8.7-2.1c0.7,0.1,1.4-0.1,2-0.4C41.8,2,46.3,1.9,50.4,4c3.4,1.8,5,5.3,4.4,10c-0.4,3.4-1.8,6.3-1.8,6.4
					c-0.3,0.8-1.1,3.4-0.4,4.9c0.3,0.6,0.8,1.1,1.5,1.3c0.5,0.2,1.1,0.2,1.8,0.1C58.8,26.3,68.6,25.3,74.2,31.8z"/>
				<path d="M72.8,32.9L72.8,32.9c-0.2,0.1-0.4,0.3-0.6,0.5c-1.3,1.1-3.8,1.4-5.3,2.3c-2.5,1.4-4.7,3.1-7.2,4.5
					c-3.5,2-6.8,4-9.9,6.3c-0.7-0.3-1.3-0.6-2.1-0.9c-0.1-0.1-0.3-0.2-0.4-0.2c-0.5-1-1.4-1.8-2.6-2.3c-0.9-0.4-1.8-0.8-2.6-1.2
					c-0.4-0.2-0.8-0.3-1.2-0.4c-0.5-0.2-0.9-0.4-1.3-0.7c-0.2-0.3-0.5-0.6-0.8-0.8c-0.8-2.5-1.2-5.1-1.2-7.7c0-0.1,0-5.1,1.2-10.9
					c0.1-0.3,0-0.6-0.2-0.8c-0.2-0.2-0.4-0.3-0.7-0.3c-0.1,0-6.3,0.2-9.5-2.8c-1.3-1.2-1.9-2.8-1.9-4.7c0-1.9,0.6-3.3,1.6-4.3
					c2-1.9,5.5-1.8,7.4-1.7c1.1,0.1,2.1-0.1,3-0.7c3.8-2.2,7.6-2.3,11.2-0.4c6.7,3.6,1.8,13.9,1.8,14.1c-0.1,0.2-1.5,3.8-0.4,6.4
					c0.5,1.1,1.3,1.8,2.5,2.3c0.8,0.3,1.7,0.3,2.7,0.2C58.9,28.1,67.9,27.2,72.8,32.9z M47,13.6c0.5,0,0.9-0.4,0.9-0.9
					c0-2.3-1.9-4.1-4.1-4.1c-2.3,0-4.1,1.9-4.1,4.1c0,0.5,0.4,0.9,0.9,0.9c0.5,0,0.9-0.4,0.9-0.9c0-1.3,1.1-2.4,2.4-2.4
					c1.3,0,2.4,1.1,2.4,2.4C46.1,13.2,46.5,13.6,47,13.6z"/>
				<path class="st1" d="M47.9,12.7c0,0.5-0.4,0.9-0.9,0.9c-0.5,0-0.9-0.4-0.9-0.9c0-1.3-1.1-2.4-2.4-2.4c-1.3,0-2.4,1.1-2.4,2.4
					c0,0.5-0.4,0.9-0.9,0.9c-0.5,0-0.9-0.4-0.9-0.9c0-2.3,1.9-4.1,4.1-4.1C46,8.6,47.9,10.4,47.9,12.7z"/>
			</g>
			<g>
			</g>
		</g>
	</g>
</g>
<line class="st0" x1="25.7" y1="31.8" x2="50.1" y2="46.2"/>
<line class="st0" x1="49.6" y1="46.1" x2="74.4" y2="31.5"/>
<g>
	<path class="st1" d="M30.3,65.8l-1.7-1l-1.7-2.9l-1.5,1L23.8,62l2.2-1.3l-2.3-3.8l1.6,1l1.6,2.8l1.4-1l1.6,0.9l-2.1,1.3L30.3,65.8z
		"/>
	<path class="st1" d="M32.5,65.2l0.1,2l-1.5-0.9l-0.2-5.2l2,1.2c0.9,0.6,1.6,1.1,2.1,1.6c0.5,0.5,0.7,1.1,0.7,1.6
		c0,0.3-0.1,0.5-0.3,0.6c-0.2,0.1-0.5,0.1-0.9,0c1.1,1.8,1.8,3,2.1,3.5l-1.6-1l-1.7-3L32.5,65.2z M32.5,64.3l0.5,0.3
		c0.5,0.3,0.8,0.4,1,0.4c0.2,0,0.3-0.1,0.3-0.4c0-0.2-0.1-0.5-0.4-0.7c-0.2-0.2-0.6-0.5-1.1-0.8l-0.4-0.3L32.5,64.3z"/>
	<path class="st1" d="M42.2,69.5c0,0.6-0.2,0.9-0.7,0.9c-0.5,0-1.1-0.2-2-0.7L39,69.2l0.1,1.9l-1.5-0.9L37.4,65l2.2,1.3
		c0.8,0.5,1.5,1,1.9,1.6C42,68.4,42.2,68.9,42.2,69.5z M38.9,68.3l0.5,0.3c0.5,0.3,0.8,0.4,1,0.4c0.2,0,0.3-0.1,0.3-0.4
		c0-0.3-0.1-0.5-0.3-0.7c-0.2-0.2-0.5-0.5-0.9-0.7l-0.7-0.4L38.9,68.3z"/>
	<path class="st1" d="M49.3,77.2l-1.7-1l-1.9-3.3l-0.6,0l0.1,1.9l-1.5-0.9l-0.2-5.2l1.5,0.9l0.1,2.4l0.6-0.3l1.8-0.7l1.6,1l-2.3,0.9
		L49.3,77.2z"/>
</g>
</svg>
