<?xml version="1.0" encoding="utf-8"?>
<!-- Generator: Adobe Illustrator 24.2.0, SVG Export Plug-In . SVG Version: 6.00 Build 0)  -->
<svg version="1.1" id="Layer_1" xmlns="http://www.w3.org/2000/svg" xmlns:xlink="http://www.w3.org/1999/xlink" x="0px" y="0px"
	 viewBox="0 0 100 100" style="enable-background:new 0 0 100 100;" xml:space="preserve">
<style type="text/css">
	.st0{stroke:#FFFFFF;stroke-width:0.8;stroke-miterlimit:10;}
	.st1{fill:#FFFFFF;}
</style>
<rect x="11.4" y="12.7" width="2.8" height="36.6"/>
<rect x="11.4" y="57.6" width="2.8" height="9.4"/>
<rect x="85.7" y="12.7" width="2.8" height="36.6"/>
<rect x="76.3" y="5.7" width="2.8" height="15.3"/>
<rect x="20.9" y="5.7" width="2.8" height="15.3"/>
<rect x="85.7" y="57.6" width="2.8" height="9.4"/>
<path d="M73.5,72.4c1.8,1.8,2.8,3.8,2.8,5.8c0,7.2-12.4,13.4-26.9,13.4s-26.9-6.1-26.9-13.4c0-2.1,1-4.2,3.1-6.1l-2-2.1
	c-2.7,2.4-3.9,5.2-3.9,8.2c0,9.1,12.9,16.2,29.7,16.2s29.7-7,29.7-16.2c0-2.7-1.3-5.5-3.5-7.7L73.5,72.4z"/>
<path d="M40.2,20.3L18.5,32.9l10.1,5.8l-0.1,0l0,0l-10,5.8L40.2,57l9.9-5.8l0.1,0l0,0l9.9,5.6l21.5-12.3l-10.1-5.9l10.1-5.9
	L59.9,20.3l-9.9,5.8L40.2,20.3z M71.4,51.7c-3.8,2.2-7.6,4.4-11.4,6.5c-3.3-1.9-6.6-3.8-9.9-5.6c0,0,0,0-0.1,0v0.1
	c-3.3,1.9-6.6,3.9-9.9,5.8c-3.8-2.2-7.7-4.4-11.5-6.6v11.8l21.4,12.5l21.4-12.5V51.7z"/>
<line class="st0" x1="31" y1="38.3" x2="50.7" y2="26.8"/>
<line class="st0" x1="50.8" y1="27.5" x2="68.8" y2="38.1"/>
<g>
	<g>
		<g id="XMLID_1_">
			<g>
				<path class="st1" d="M68.9,38.1c0.1,0.1,0.2,0.2,0.2,0.3c-0.4,0.1-0.9,0.4-1.3,0.6l0,0c-3.8-4.5-10.9-3.7-12.9-3.4
					c-0.8,0.1-1.5,0.1-2.1-0.1c-0.9-0.3-1.6-0.9-2-1.8c-0.9-2,0.2-4.9,0.3-5c0.1-0.1,3.9-8.2-1.4-11c-2.8-1.5-5.8-1.4-8.7,0.3
					c-0.7,0.4-1.5,0.6-2.4,0.5c-1.5-0.1-4.2-0.2-5.8,1.3c-0.8,0.8-1.3,1.9-1.3,3.4c0,1.5,0.5,2.7,1.5,3.7c2.5,2.4,7.4,2.2,7.4,2.2
					c0.2,0,0.4,0.1,0.6,0.3c0.1,0.2,0.2,0.4,0.2,0.6c-1,4.5-0.9,8.4-0.9,8.5c0,2.1,0.3,4.1,1,6c-0.5-0.4-1-0.7-1.7-0.9
					c-0.4-1.7-0.6-3.4-0.6-5.2c0-0.2,0-3.7,0.8-7.9c-1.7-0.1-5.3-0.4-7.6-2.6c-1.3-1.2-1.9-2.8-1.9-4.7c0-1.9,0.6-3.4,1.7-4.4
					c2-1.8,5.1-1.8,6.8-1.6c0.5,0,1.1-0.1,1.5-0.4c3.4-1.9,6.9-2.1,10.1-0.4c2.7,1.4,3.9,4.1,3.4,7.8c-0.3,2.7-1.4,4.9-1.4,5
					c-0.3,0.6-0.8,2.6-0.3,3.9c0.2,0.5,0.6,0.8,1.2,1c0.4,0.1,0.9,0.2,1.4,0.1C56.9,33.8,64.5,33,68.9,38.1z"/>
				<path d="M67.8,39L67.8,39c-0.2,0.1-0.3,0.2-0.5,0.4c-1,0.8-2.9,1.1-4.1,1.8c-1.9,1.1-3.7,2.4-5.6,3.5c-2.7,1.6-5.3,3.1-7.8,4.9
					c-0.5-0.3-1-0.5-1.6-0.7c-0.1-0.1-0.2-0.1-0.3-0.2c-0.4-0.8-1.1-1.4-2-1.8c-0.7-0.3-1.4-0.6-2.1-0.9c-0.3-0.1-0.6-0.2-0.9-0.3
					c-0.4-0.2-0.7-0.3-1.1-0.5c-0.2-0.2-0.4-0.5-0.6-0.6c-0.6-1.9-1-4-1-6c0,0,0-4,0.9-8.5c0-0.2,0-0.4-0.2-0.6
					c-0.1-0.2-0.3-0.3-0.6-0.3c-0.1,0-4.9,0.2-7.4-2.2c-1-1-1.5-2.2-1.5-3.7c0-1.5,0.4-2.6,1.3-3.4c1.6-1.5,4.3-1.4,5.8-1.3
					c0.8,0.1,1.6-0.1,2.4-0.5c2.9-1.7,6-1.8,8.7-0.3c5.2,2.8,1.4,10.9,1.4,11c0,0.1-1.2,3-0.3,5c0.4,0.9,1,1.4,2,1.8
					c0.6,0.2,1.3,0.3,2.1,0.1C56.9,35.2,64,34.5,67.8,39z M47.6,23.9c0.4,0,0.7-0.3,0.7-0.7c0-1.8-1.5-3.2-3.2-3.2
					c-1.8,0-3.2,1.4-3.2,3.2c0,0.4,0.3,0.7,0.7,0.7c0.4,0,0.7-0.3,0.7-0.7c0-1,0.8-1.8,1.8-1.8c1,0,1.8,0.8,1.8,1.8
					C46.9,23.6,47.3,23.9,47.6,23.9z"/>
				<path class="st1" d="M48.3,23.2c0,0.4-0.3,0.7-0.7,0.7c-0.4,0-0.7-0.3-0.7-0.7c0-1-0.8-1.8-1.8-1.8c-1,0-1.8,0.8-1.8,1.8
					c0,0.4-0.3,0.7-0.7,0.7c-0.4,0-0.7-0.3-0.7-0.7c0-1.8,1.4-3.2,3.2-3.2C46.9,20,48.3,21.4,48.3,23.2z"/>
			</g>
			<g>
			</g>
		</g>
	</g>
</g>
<line class="st0" x1="31" y1="38.1" x2="50.1" y2="49.3"/>
<line class="st0" x1="49.7" y1="49.2" x2="69.1" y2="37.9"/>
<g>
	<path class="st1" d="M34.6,64.7l-1.3-0.8L32,61.6l-1.2,0.8l-1.2-0.7l1.7-1l-1.8-3l1.3,0.8l1.2,2.2l1.1-0.8l1.2,0.7l-1.6,1
		L34.6,64.7z"/>
	<path class="st1" d="M36.4,64.2l0.1,1.6l-1.2-0.7L35.1,61l1.6,0.9c0.7,0.4,1.3,0.9,1.6,1.3c0.4,0.4,0.5,0.8,0.6,1.2
		c0,0.2-0.1,0.4-0.2,0.5c-0.2,0.1-0.4,0.1-0.7,0c0.8,1.4,1.4,2.3,1.7,2.7l-1.3-0.8L37,64.6L36.4,64.2z M36.3,63.5l0.4,0.2
		c0.4,0.2,0.6,0.3,0.8,0.3c0.2,0,0.3-0.1,0.2-0.3c0-0.2-0.1-0.4-0.3-0.6s-0.5-0.4-0.8-0.6l-0.3-0.2L36.3,63.5z"/>
	<path class="st1" d="M43.9,67.5c0,0.4-0.2,0.7-0.5,0.7c-0.4,0-0.9-0.2-1.5-0.6l-0.5-0.3l0.1,1.5l-1.2-0.7L40.1,64l1.7,1
		c0.7,0.4,1.2,0.8,1.5,1.2C43.7,66.7,43.9,67.1,43.9,67.5z M41.4,66.6l0.4,0.2c0.4,0.2,0.6,0.3,0.8,0.3c0.2,0,0.3-0.1,0.2-0.3
		c0-0.2-0.1-0.4-0.2-0.6c-0.2-0.2-0.4-0.4-0.7-0.6l-0.5-0.3L41.4,66.6z"/>
	<path class="st1" d="M49.4,73.5l-1.3-0.8l-1.5-2.6l-0.5,0l0.1,1.5l-1.2-0.7l-0.1-4.1l1.2,0.7l0.1,1.9l0.4-0.2l1.4-0.5l1.3,0.8
		l-1.8,0.7L49.4,73.5z"/>
</g>
</svg>
